<svg width="4434" height="871" viewBox="0 0 4434 871" fill="none" xmlns="http://www.w3.org/2000/svg">
<rect y="12" width="859" height="859" rx="78" fill="#00D98A"/>
<path d="M522.574 323.96C520.528 303.335 511.75 287.312 496.239 275.892C480.727 264.472 459.676 258.761 433.085 258.761C415.017 258.761 399.761 261.318 387.318 266.432C374.875 271.375 365.33 278.278 358.682 287.142C352.205 296.006 348.966 306.062 348.966 317.312C348.625 326.688 350.585 334.869 354.847 341.858C359.278 348.847 365.33 354.898 373 360.011C380.67 364.955 389.534 369.301 399.591 373.051C409.648 376.631 420.386 379.699 431.807 382.256L478.852 393.506C501.693 398.619 522.659 405.437 541.75 413.96C560.841 422.483 577.375 432.966 591.352 445.409C605.33 457.852 616.153 472.511 623.824 489.386C631.665 506.261 635.67 525.608 635.841 547.426C635.67 579.472 627.489 607.256 611.295 630.778C595.273 654.131 572.091 672.284 541.75 685.239C511.58 698.023 475.188 704.415 432.574 704.415C390.301 704.415 353.483 697.938 322.119 684.983C290.926 672.028 266.551 652.852 248.994 627.455C231.608 601.886 222.489 570.267 221.636 532.597H328.767C329.96 550.153 334.989 564.812 343.852 576.574C352.886 588.165 364.903 596.943 379.903 602.909C395.074 608.705 412.205 611.602 431.295 611.602C450.045 611.602 466.324 608.875 480.131 603.42C494.108 597.966 504.932 590.381 512.602 580.665C520.273 570.949 524.108 559.784 524.108 547.17C524.108 535.409 520.614 525.523 513.625 517.511C506.807 509.5 496.75 502.682 483.455 497.057C470.33 491.432 454.222 486.318 435.131 481.716L378.114 467.398C333.966 456.659 299.108 439.869 273.54 417.028C247.972 394.187 235.273 363.42 235.443 324.727C235.273 293.023 243.71 265.324 260.756 241.631C277.972 217.937 301.58 199.443 331.58 186.148C361.58 172.852 395.67 166.205 433.852 166.205C472.716 166.205 506.636 172.852 535.614 186.148C564.761 199.443 587.432 217.937 603.625 241.631C619.818 265.324 628.17 292.767 628.682 323.96H522.574Z" fill="white"/>
<path d="M1033.19 697V246.091H1211.09C1245.29 246.091 1274.42 252.623 1298.5 265.686C1322.57 278.603 1340.92 296.583 1353.54 319.628C1366.31 342.526 1372.69 368.946 1372.69 398.889C1372.69 428.832 1366.23 455.253 1353.32 478.151C1340.4 501.048 1321.69 518.882 1297.17 531.652C1272.81 544.422 1243.31 550.807 1208.67 550.807H1095.28V474.408H1193.25C1211.6 474.408 1226.72 471.252 1238.61 464.94C1250.65 458.482 1259.6 449.602 1265.47 438.3C1271.49 426.851 1274.5 413.714 1274.5 398.889C1274.5 383.918 1271.49 370.854 1265.47 359.699C1259.6 348.397 1250.65 339.663 1238.61 333.499C1226.57 327.187 1211.31 324.031 1192.81 324.031H1128.52V697H1033.19ZM1460.27 697H1358.11L1513.77 246.091H1636.62L1792.06 697H1689.9L1576.96 349.131H1573.43L1460.27 697ZM1453.88 519.763H1695.19V594.18H1453.88V519.763ZM1773.9 246.091H1880.68L1983.5 440.281H1987.9L2090.72 246.091H2197.51L2033.04 537.597V697H1938.37V537.597L1773.9 246.091ZM2249.58 246.091H2367.15L2491.32 549.045H2496.61L2620.78 246.091H2738.36V697H2645.88V403.513H2642.14L2525.45 694.798H2462.48L2345.79 402.412H2342.05V697H2249.58V246.091ZM2816.9 697V246.091H3120.74V324.692H2912.24V432.135H3105.1V510.736H2912.24V618.399H3121.62V697H2816.9ZM3573.68 246.091V697H3491.34L3295.17 413.2H3291.86V697H3196.53V246.091H3280.19L3474.83 529.67H3478.79V246.091H3573.68ZM3635.27 324.692V246.091H4005.6V324.692H3867.55V697H3773.32V324.692H3635.27ZM4311.2 375.771C4309.44 358.011 4301.88 344.214 4288.52 334.379C4275.16 324.545 4257.04 319.628 4234.14 319.628C4218.58 319.628 4205.44 321.83 4194.73 326.233C4184.01 330.49 4175.79 336.434 4170.07 344.067C4164.49 351.699 4161.7 360.359 4161.7 370.047C4161.41 378.12 4163.1 385.165 4166.77 391.183C4170.58 397.201 4175.79 402.412 4182.4 406.815C4189 411.072 4196.64 414.815 4205.3 418.044C4213.96 421.126 4223.2 423.768 4233.04 425.97L4273.55 435.658C4293.22 440.061 4311.27 445.932 4327.71 453.271C4344.15 460.61 4358.39 469.637 4370.42 480.352C4382.46 491.067 4391.78 503.69 4398.39 518.222C4405.14 532.753 4408.59 549.412 4408.73 568.2C4408.59 595.795 4401.54 619.72 4387.6 639.976C4373.8 660.085 4353.84 675.717 4327.71 686.872C4301.73 697.881 4270.39 703.385 4233.7 703.385C4197.3 703.385 4165.59 697.807 4138.58 686.652C4111.72 675.497 4090.73 658.984 4075.62 637.114C4060.64 615.097 4052.79 587.869 4052.06 555.43H4144.31C4145.34 570.549 4149.67 583.172 4157.3 593.3C4165.08 603.281 4175.43 610.84 4188.34 615.977C4201.41 620.968 4216.16 623.463 4232.6 623.463C4248.74 623.463 4262.76 621.115 4274.65 616.418C4286.69 611.721 4296.01 605.189 4302.61 596.822C4309.22 588.456 4312.52 578.842 4312.52 567.98C4312.52 557.852 4309.51 549.339 4303.49 542.44C4297.62 535.542 4288.96 529.67 4277.51 524.827C4266.21 519.983 4252.34 515.58 4235.9 511.616L4186.8 499.287C4148.79 490.04 4118.77 475.582 4096.75 455.913C4074.74 436.245 4063.8 409.751 4063.95 376.432C4063.8 349.131 4071.07 325.279 4085.74 304.876C4100.57 284.474 4120.9 268.548 4146.73 257.099C4172.56 245.651 4201.92 239.926 4234.8 239.926C4268.26 239.926 4297.47 245.651 4322.43 257.099C4347.53 268.548 4367.05 284.474 4380.99 304.876C4394.94 325.279 4402.13 348.91 4402.57 375.771H4311.2Z" fill="#00D98A"/>
</svg>
